<svg xmlns="http://www.w3.org/2000/svg" viewBox="0 0 51.45 76.82"><defs><style>.cls-1{fill:#b498d8;}</style></defs><g id="Layer_2" data-name="Layer 2"><g id="Grid"><path class="cls-1" d="M47.28,2.21a2.09,2.09,0,1,1,4.17,0,2.09,2.09,0,1,1-4.17,0Z"/><path class="cls-1" d="M47.28,16.7a2.09,2.09,0,1,1,4.17,0,2.09,2.09,0,1,1-4.17,0Z"/><path class="cls-1" d="M47.28,31.19a2.09,2.09,0,1,1,4.17,0,2.09,2.09,0,1,1-4.17,0Z"/><path class="cls-1" d="M47.28,45.68a2.09,2.09,0,1,1,4.17,0,2.09,2.09,0,1,1-4.17,0Z"/><path class="cls-1" d="M47.28,60.17a2.09,2.09,0,1,1,4.17,0,2.09,2.09,0,1,1-4.17,0Z"/><path class="cls-1" d="M47.28,74.66a2.09,2.09,0,1,1,4.17,0,2.09,2.09,0,1,1-4.17,0Z"/><path class="cls-1" d="M31.52,2.21a2.09,2.09,0,1,1,4.17,0,2.09,2.09,0,1,1-4.17,0Z"/><path class="cls-1" d="M31.52,16.7a2.09,2.09,0,1,1,4.17,0,2.09,2.09,0,1,1-4.17,0Z"/><path class="cls-1" d="M31.52,31.19a2.09,2.09,0,1,1,4.17,0,2.09,2.09,0,1,1-4.17,0Z"/><path class="cls-1" d="M31.52,45.68a2.09,2.09,0,1,1,4.17,0,2.09,2.09,0,1,1-4.17,0Z"/><path class="cls-1" d="M31.52,60.17a2.09,2.09,0,1,1,4.17,0,2.09,2.09,0,1,1-4.17,0Z"/><path class="cls-1" d="M31.52,74.66a2.09,2.09,0,1,1,4.17,0,2.09,2.09,0,1,1-4.17,0Z"/><path class="cls-1" d="M15.76,2.21a2.09,2.09,0,1,1,4.17,0,2.09,2.09,0,1,1-4.17,0Z"/><path class="cls-1" d="M15.76,16.7a2.09,2.09,0,1,1,4.17,0,2.09,2.09,0,1,1-4.17,0Z"/><path class="cls-1" d="M15.76,31.19a2.09,2.09,0,1,1,4.17,0,2.09,2.09,0,1,1-4.17,0Z"/><path class="cls-1" d="M15.76,45.68a2.09,2.09,0,1,1,4.17,0,2.09,2.09,0,1,1-4.17,0Z"/><path class="cls-1" d="M15.76,60.17a2.09,2.09,0,1,1,4.17,0,2.09,2.09,0,1,1-4.17,0Z"/><path class="cls-1" d="M15.76,74.66a2.09,2.09,0,1,1,4.17,0,2.09,2.09,0,1,1-4.17,0Z"/><path class="cls-1" d="M0,2.21A2.1,2.1,0,0,1,2.08,0,2.1,2.1,0,0,1,4.17,2.21,2.09,2.09,0,1,1,0,2.21Z"/><path class="cls-1" d="M0,16.7a2.1,2.1,0,0,1,2.08-2.21A2.1,2.1,0,0,1,4.17,16.7,2.09,2.09,0,1,1,0,16.7Z"/><path class="cls-1" d="M0,31.19A2.1,2.1,0,0,1,2.08,29a2.19,2.19,0,0,1,0,4.37A2.08,2.08,0,0,1,0,31.19Z"/><path class="cls-1" d="M0,45.68a2.1,2.1,0,0,1,2.08-2.21,2.19,2.19,0,0,1,0,4.37A2.08,2.08,0,0,1,0,45.68Z"/><path class="cls-1" d="M0,60.17A2.1,2.1,0,0,1,2.08,58a2.19,2.19,0,0,1,0,4.37A2.08,2.08,0,0,1,0,60.17Z"/><path class="cls-1" d="M0,74.66a2.1,2.1,0,0,1,2.08-2.21,2.19,2.19,0,0,1,0,4.37A2.08,2.08,0,0,1,0,74.66Z"/></g></g></svg>